<svg id="Layer_1" data-name="Layer 1" xmlns="http://www.w3.org/2000/svg" viewBox="0 0 200 50"><defs><style>.cls-1{fill:#f47836;}.cls-2{fill:#00539b;}</style></defs><polygon class="cls-1" points="58.79 9.21 58.79 43.09 60.29 43.09 60.29 9.21 58.79 9.21 58.79 9.21"/><path class="cls-2" d="M171.8,18a1.6,1.6,0,0,0,.71.85,2.61,2.61,0,0,0,1.38.31,3.71,3.71,0,0,0,1.33-.23,5.67,5.67,0,0,0,1.23-.65,4.24,4.24,0,0,0,.94-.78,4.39,4.39,0,0,0,.74-1.46,6,6,0,0,0,.32-1.91,3,3,0,0,0-.13-.93,1.88,1.88,0,0,0-.38-.73,2,2,0,0,0-.79-.5,3.51,3.51,0,0,0-1.15-.19,3.57,3.57,0,0,0-1.42.29,6.12,6.12,0,0,0-1.24.73,6,6,0,0,0-.78.72,4.45,4.45,0,0,0-.65,1.41,6.54,6.54,0,0,0-.31,1.89,3.4,3.4,0,0,0,.2,1.18Zm1.86-3.47a3.86,3.86,0,0,1,.74-1.65,1.35,1.35,0,0,1,1-.44,1.15,1.15,0,0,1,.92.4,1.91,1.91,0,0,1,.36,1.29,8.35,8.35,0,0,1-.31,2.21,6,6,0,0,1-.46,1.25,1.94,1.94,0,0,1-.56.65,1.29,1.29,0,0,1-.72.2,1.22,1.22,0,0,1-1-.39,1.94,1.94,0,0,1-.34-1.29,8.66,8.66,0,0,1,.33-2.23Zm6.72-1.71h1l-1.06,5.48a21.87,21.87,0,0,1-.67,2.95,1.08,1.08,0,0,1-.31.48.64.64,0,0,1-.39.14.6.6,0,0,1-.4-.15,1.55,1.55,0,0,1-.34-.51l-.23.05c-.06.26-.11.5-.18.73s-.17.51-.31.87A1.37,1.37,0,0,0,178,23a1.57,1.57,0,0,0,.72-.2,4.91,4.91,0,0,0,1.4-1.18,6.46,6.46,0,0,0,1.11-1.85,31,31,0,0,0,1-3.42l.81-3.52h1.86a4.89,4.89,0,0,1,.23-.75l-.07-.12a6.72,6.72,0,0,1-.71.07c-.53,0-.86.05-1,0h-.17c.12-.64.26-1.29.43-1.94a2.33,2.33,0,0,1,.21-.54.7.7,0,0,1,.26-.28.68.68,0,0,1,.36-.1,1,1,0,0,1,.52.19,2.28,2.28,0,0,1,.61.65l.21,0a14.89,14.89,0,0,1,.42-1.87,1.69,1.69,0,0,0-.6-.12,1.77,1.77,0,0,0-.69.11,6.73,6.73,0,0,0-1,.67,15.42,15.42,0,0,0-1.42,1.15,3.08,3.08,0,0,0-.61.76,3.75,3.75,0,0,0-.26.86,3.45,3.45,0,0,1-.1.39,5.73,5.73,0,0,1-.78.27c-.33.09-.56.17-.72.23l-.07.37Z"/><path class="cls-2" d="M78.78,29.3H77.45A6.91,6.91,0,0,1,77.28,31a.47.47,0,0,1-.28.35,10,10,0,0,1-2.48.18c-.45,0-1.32,0-2.6-.11v-2.1c0-2.62,0-4.43.17-5.43l1.59-.07,1.43,0a14.21,14.21,0,0,1,2.32.17,4.07,4.07,0,0,1,1.26.36.29.29,0,0,1,.14.15,3.18,3.18,0,0,1,.09.79c0,.84.07,1.38.07,1.62h1.24c0-.66,0-1.44.13-2.33s.18-1.62.29-2.19l-.14-.22A26.31,26.31,0,0,0,77.62,22l-7.28.14L65,22V23.3a15.4,15.4,0,0,1,1.79.17,1,1,0,0,1,.43.16.41.41,0,0,1,.15.25,7.72,7.72,0,0,1,.16,1.65c.1,2.68.15,4.1.15,4.24v6.28c0,.53,0,1.41-.08,2.64s-.1,2-.13,2.19a1.92,1.92,0,0,1-.21.79.46.46,0,0,1-.23.16A9.4,9.4,0,0,1,65,42v1.25c1.87-.07,3.23-.11,4.08-.11l5.95.11V42a18.33,18.33,0,0,1-2.37-.25.71.71,0,0,1-.38-.27A5.56,5.56,0,0,1,72,39.82c0-1-.08-2.64-.08-5V33.11h1.2a22.84,22.84,0,0,1,3.53.19.76.76,0,0,1,.54.29,7.13,7.13,0,0,1,.26,2.28h1.33V29.3ZM87.2,43.08q1,0,3.48.06c2.19.06,3.38.08,3.56.08,1.29,0,2.24,0,2.86-.08A5.35,5.35,0,0,0,98,43c0-.19.06-.76.14-1.72l.38-3.06s0-.22.05-.5H97.29c-.19,1-.39,1.88-.59,2.65a1.52,1.52,0,0,1-.26.56,1.87,1.87,0,0,1-.74.2,27.57,27.57,0,0,1-4,.26c-.5,0-1.45,0-2.85-.11,0-.3,0-1.16,0-2.58s0-2.85,0-4.29c0-2.73,0-4.19,0-4.37,0-1.7,0-3.1.07-4.21A12.89,12.89,0,0,1,89,23.93a.53.53,0,0,1,.24-.3,7,7,0,0,1,2.09-.27V22c-1.65.08-3.39.11-5.22.11-1.65,0-3.11,0-4.39-.11v1.33a6.8,6.8,0,0,1,2.32.3.53.53,0,0,1,.23.28,21.11,21.11,0,0,1,.19,3.25c0,.75,0,2.72,0,5.91q0,3.26-.06,5.58c0,1.55-.09,2.45-.14,2.7a.36.36,0,0,1-.07.17,1.47,1.47,0,0,1-.41.3,10,10,0,0,1-1.1.59v.78c2-.09,3.52-.14,4.51-.14Zm13.06-4.2a9,9,0,0,0,3.84,3.64,12.81,12.81,0,0,0,5.84,1.23,14.64,14.64,0,0,0,5.6-1,10.09,10.09,0,0,0,3.19-2.17,9.55,9.55,0,0,0,2.12-3.22,14,14,0,0,0,1-5.29A13.32,13.32,0,0,0,121.5,29a10.13,10.13,0,0,0-1-2.56,9.48,9.48,0,0,0-4.89-4,15.1,15.1,0,0,0-5-.78,15.62,15.62,0,0,0-5.12.81,9.46,9.46,0,0,0-3.38,2.07,9.56,9.56,0,0,0-2.4,3.5,12.71,12.71,0,0,0-.84,4.83,11.84,11.84,0,0,0,1.39,6Zm4-11.39a5.85,5.85,0,0,1,2.25-3.07,6.57,6.57,0,0,1,3.77-1,6.47,6.47,0,0,1,3.11.65,6,6,0,0,1,2,1.89,9.23,9.23,0,0,1,1.33,3,15.26,15.26,0,0,1,.46,3.89,14.38,14.38,0,0,1-.86,5.26A6,6,0,0,1,114,41.14a6.42,6.42,0,0,1-3.41.91,6.56,6.56,0,0,1-3.58-1,6.82,6.82,0,0,1-2.48-3.27,15.32,15.32,0,0,1-1-5.84,13.6,13.6,0,0,1,.71-4.49ZM124,23.6a.56.56,0,0,1,.22.26,9.69,9.69,0,0,1,.18,2.27l.08,3.2v5.61l-.12,4.43a14.1,14.1,0,0,1-.15,1.78,1,1,0,0,1-.13.42.43.43,0,0,1-.26.16,12.19,12.19,0,0,1-2,.16v1.33c1.34-.07,2.8-.11,4.37-.11,1.76,0,3.51,0,5.23.11V41.89a15.53,15.53,0,0,1-1.75-.09,1.1,1.1,0,0,1-.44-.16.59.59,0,0,1-.2-.22,3.67,3.67,0,0,1-.16-1.1c0-.28-.06-1.46-.1-3.54,0-1.69,0-3.3,0-4.81,0-1,0-2.86.09-5.72,0-1.27.06-2.09.09-2.45a9.82,9.82,0,0,1,3.72.1,3.54,3.54,0,0,1,1.65,1.29,3.87,3.87,0,0,1,.66,2.31,5,5,0,0,1-.63,2.49,3.63,3.63,0,0,1-1.56,1.55,6.27,6.27,0,0,1-2.75.37l-.17.5a4.17,4.17,0,0,1,.94,1c.65.87,1.44,2.08,2.37,3.61l3.24,5.34a3.61,3.61,0,0,1,.36.86c.8,0,1.6-.06,2.41-.06s1.82,0,3.37.06V41.89a3,3,0,0,1-1-.12,1.57,1.57,0,0,1-.5-.37c-.17-.18-.64-.77-1.39-1.77l-1-1.5-2.35-3.5c-.06-.09-.11-.19-.17-.29s-.24-.38-.57-.86-.61-.93-.86-1.38a7.48,7.48,0,0,0,3.5-2.37,5.38,5.38,0,0,0,1.14-3.34,4.19,4.19,0,0,0-.83-2.62,4,4,0,0,0-2-1.41A13.58,13.58,0,0,0,133,22c-.82,0-1.86,0-3.11.08-.75,0-1.66.07-2.72.07q-1.86,0-2.88,0l-2.42-.08V23.3a8.63,8.63,0,0,1,2.22.3Zm24.15-1.46c-1.65,0-3.11,0-4.39-.11v1.33a16.86,16.86,0,0,1,1.92.13.85.85,0,0,1,.37.17.81.81,0,0,1,.14.31,20.59,20.59,0,0,1,.19,2.41c0,.57,0,1.87,0,3.88v6.33c0,1,0,2.15-.13,3.36,0,.83-.09,1.31-.12,1.43a.49.49,0,0,1-.14.24.93.93,0,0,1-.44.17c-.16,0-.76.06-1.82.1v1.33c1.28-.07,2.73-.11,4.36-.11,1.87,0,3.62,0,5.27.11V41.89a13.33,13.33,0,0,1-1.81-.1,1,1,0,0,1-.46-.18.61.61,0,0,1-.2-.32,8.27,8.27,0,0,1-.16-2l0-2.78v-6.1q0-.28.06-4c0-.73,0-1.22.05-1.48a3.63,3.63,0,0,1,.15-1,.53.53,0,0,1,.17-.25,1.08,1.08,0,0,1,.41-.16,13.23,13.23,0,0,1,1.83-.12V22c-1.65.08-3.39.11-5.24.11Zm11.71,21,4.49.11a17.66,17.66,0,0,0,5.22-.67,11.88,11.88,0,0,0,4-2.21,10.78,10.78,0,0,0,2.91-3.8,12.14,12.14,0,0,0,1.06-5.16,11.94,11.94,0,0,0-.71-4.18,7.27,7.27,0,0,0-1.25-2.12,7.86,7.86,0,0,0-2-1.71,8.82,8.82,0,0,0-2.81-1,22.19,22.19,0,0,0-4.29-.33c-.77,0-1.81,0-3.1.06-1.78.05-3,.08-3.64.08l-5.5-.11v1.22c1.1.14,1.73.23,1.9.28a.75.75,0,0,1,.38.18.53.53,0,0,1,.12.21,15.79,15.79,0,0,1,.2,2.73c.05,2.57.08,4.52.08,5.86V35q0,4.56-.18,6.59a10.35,10.35,0,0,1-1,.67l-.42.24v.73l4.58-.11Zm1.31-7.7V31.93q0-5.94.15-8.08a17.63,17.63,0,0,1,2.58-.21,14.51,14.51,0,0,1,4.63.55,5.64,5.64,0,0,1,2.52,1.75,7.37,7.37,0,0,1,1.44,2.83,12.34,12.34,0,0,1,.44,3.34,13.21,13.21,0,0,1-.44,3.52,9.33,9.33,0,0,1-1.23,2.82,6.7,6.7,0,0,1-1.66,1.78,6.2,6.2,0,0,1-2,.93,13.77,13.77,0,0,1-3.57.42,17.17,17.17,0,0,1-2.7-.23q-.15-1.44-.15-5.94Zm17.17,7.7,3.49.11V42a6.53,6.53,0,0,1-2.16-.27.54.54,0,0,1-.25-.51,11.75,11.75,0,0,1,.76-2.6l.66-1.81h7.81L190,40.1a4,4,0,0,1,.35,1.24.45.45,0,0,1-.24.43A9.16,9.16,0,0,1,188,42v1.25l5.31-.11,4.2.11V42l-.66-.07a4.53,4.53,0,0,1-.89-.11,1,1,0,0,1-.31-.18,1.43,1.43,0,0,1-.28-.4l-.61-1.39-.94-2.07L187.1,21.94h-2.16l-1.33,3.44-4,9.75c-.74,1.84-1.25,3.08-1.51,3.71-.57,1.33-.92,2.1-1,2.31a2,2,0,0,1-.35.45.9.9,0,0,1-.4.21,10.1,10.1,0,0,1-1.46.16v1.25l3.47-.11ZM184.7,27.2,187.94,35c-.92,0-2,0-3.12,0s-2.28,0-3.24,0l3.12-7.83Z"/><path class="cls-2" d="M65.79,9.81A.47.47,0,0,1,66,10a1.17,1.17,0,0,1,.08.41c0,.47,0,1,0,1.6v2.83a9.7,9.7,0,0,0,0,1.23,2.43,2.43,0,0,0,.24.77,2.63,2.63,0,0,0,.59.72,3.13,3.13,0,0,0,1,.51,6.19,6.19,0,0,0,1.81.26,5.27,5.27,0,0,0,1.45-.18,3.17,3.17,0,0,0,1.09-.53,2.56,2.56,0,0,0,.7-.78,2.83,2.83,0,0,0,.34-1,9.75,9.75,0,0,0,.08-1.18V13.1c0-.44,0-1,0-1.81A9.91,9.91,0,0,1,73.52,10a.32.32,0,0,1,.13-.19,1.61,1.61,0,0,1,.74-.1V9.2L73,9.24h-.17l-1.37,0v.52a2.57,2.57,0,0,1,.92.13.26.26,0,0,1,.14.15,3.53,3.53,0,0,1,.09,1c0,.25,0,.93,0,2v1.3a5,5,0,0,1-.22,1.83,1.78,1.78,0,0,1-.75.79,2.82,2.82,0,0,1-1.4.3A3.07,3.07,0,0,1,69,17a1.65,1.65,0,0,1-.74-.59,2.09,2.09,0,0,1-.3-1c0-.18,0-.66,0-1.44V11.8A10.17,10.17,0,0,1,68,10.06a.31.31,0,0,1,.12-.22A2,2,0,0,1,69,9.72V9.2h-.24l-.86,0H67L65,9.2v.52l.83.09Zm11.29,8.27c.7,0,1.26,0,1.67,0l1.38,0v-.52H80c-.13,0-.33,0-.6-.05a.56.56,0,0,1-.21-.07.27.27,0,0,1-.09-.12,5.64,5.64,0,0,1-.08-.9c0-.71,0-1.39,0-2.05V11.2q3.75,4.59,5.81,6.88l1.09.16.08,0c-.06-.6-.08-2.31-.08-5.13,0-.36,0-.92,0-1.67A6.6,6.6,0,0,1,86,9.94a.14.14,0,0,1,.07-.1A2.54,2.54,0,0,1,87,9.73V9.2c-.67,0-1.2,0-1.62,0s-.91,0-1.42,0v.53a2.58,2.58,0,0,1,1,.12.54.54,0,0,1,.11.31c0,.4.08,1.74.08,4v1.47q-.89-.92-2.22-2.52-1.86-2.22-3.17-3.93l-.58,0-.92,0c-.26,0-.65,0-1.19,0v.53a7.74,7.74,0,0,1,.81.08.53.53,0,0,1,.2.1.51.51,0,0,1,.09.21,4.75,4.75,0,0,1,0,.61l0,1.84v2c0,.57,0,1,0,1.37q0,.93-.09,1.17a.47.47,0,0,1-.08.24.28.28,0,0,1-.11.08,6.33,6.33,0,0,1-.86.07v.54ZM91.71,9.24c-.69,0-1.3,0-1.83,0v.56a7.58,7.58,0,0,1,.79.05.34.34,0,0,1,.16.08.67.67,0,0,1,.06.12c0,.14,0,.47.07,1,0,.24,0,.78,0,1.63V15.3q0,.64-.06,1.41c0,.34,0,.54,0,.59a.21.21,0,0,1-.06.1.3.3,0,0,1-.18.07,6.86,6.86,0,0,1-.75.05v.56c.53,0,1.14,0,1.82,0s1.52,0,2.21,0v-.56c-.42,0-.67,0-.76,0A.49.49,0,0,1,93,17.4a.23.23,0,0,1-.09-.14,3.65,3.65,0,0,1-.06-.85l0-1.16V12.7q0-.12,0-1.68c0-.31,0-.52,0-.63A1.41,1.41,0,0,1,92.9,10a.18.18,0,0,1,.07-.1.39.39,0,0,1,.17-.07,5.39,5.39,0,0,1,.77-.05V9.2c-.69,0-1.43,0-2.2,0Zm10.14,8.89c.26-.73.75-2,1.48-3.7l.85-2,.45-1.06a6.39,6.39,0,0,1,.72-1.44,2.26,2.26,0,0,1,.72-.13V9.2l-1.37,0-1.62,0v.56c.2,0,.43,0,.7,0a.61.61,0,0,1,.23,0,.16.16,0,0,1,.09.07.27.27,0,0,1,0,.17c0,.05,0,.1,0,.15s-.16.51-.35,1l-.45,1.2-1.42,3.49L100.31,12a.76.76,0,0,1,0-.11l-.26-.64a5.5,5.5,0,0,1-.42-1.2.23.23,0,0,1,.06-.16.34.34,0,0,1,.19-.09,3.53,3.53,0,0,1,.77-.06V9.2l-2.28,0-1.85,0v.56a2.32,2.32,0,0,1,.79.11,1.57,1.57,0,0,1,.37.56c.16.32.6,1.33,1.3,3l.91,2.16c.33.79.67,1.64,1,2.53ZM111,18l2.08,0,1,0a8.83,8.83,0,0,0,1.16-.05l.08-.08a17.55,17.55,0,0,1,.14-2.06H115a6,6,0,0,1-.24,1.15.17.17,0,0,1-.08.11,2,2,0,0,1-.71.13c-.39,0-.81,0-1.26,0s-.87,0-1.22,0c0-.22,0-.47,0-.77V13.85a7.36,7.36,0,0,1,1,0,7,7,0,0,1,1.13.07.36.36,0,0,1,.28.16,2.13,2.13,0,0,1,.09.9h.52l0-1.39,0-1.39H114a2.81,2.81,0,0,1-.09.8.24.24,0,0,1-.09.14,1.23,1.23,0,0,1-.4,0l-1,0c-.32,0-.61,0-.9,0V11.82a18.05,18.05,0,0,1,.08-1.83,11.5,11.5,0,0,1,1.16-.05,10.21,10.21,0,0,1,1.22.07,1.57,1.57,0,0,1,.51.1.23.23,0,0,1,.07.13,5.64,5.64,0,0,1,.06.92h.49c0-.55.06-.85.07-.92l.12-.91,0-.09-.21,0-.92,0-1.29,0-1.93,0h-2.31v.5a3.49,3.49,0,0,1,.92.11.18.18,0,0,1,.09.1,2.92,2.92,0,0,1,.09.87c0,.72,0,1.13,0,1.24v2.85q0,.5-.06,1.59c0,.4,0,.68-.06.86a3.17,3.17,0,0,1-.62.37v.34L111,18Zm8.35-8.17a.2.2,0,0,1,.09.11,4.09,4.09,0,0,1,.08.95l0,1.34V14.6l-.06,1.86a5.63,5.63,0,0,1-.06.75.43.43,0,0,1,0,.17.3.3,0,0,1-.11.07,5.25,5.25,0,0,1-.85.07v.56c.56,0,1.17,0,1.83,0s1.47,0,2.19,0v-.56a5.79,5.79,0,0,1-.73,0,.5.5,0,0,1-.19-.07.32.32,0,0,1-.08-.09,1.55,1.55,0,0,1-.07-.46c0-.12,0-.62,0-1.49,0-.71,0-1.39,0-2,0-.4,0-1.2,0-2.4,0-.54,0-.88,0-1a4.07,4.07,0,0,1,.61-.05,3.43,3.43,0,0,1,1,.09,1.63,1.63,0,0,1,.69.54,1.69,1.69,0,0,1,.28,1,2,2,0,0,1-.27,1,1.5,1.5,0,0,1-.65.65,2.6,2.6,0,0,1-1.15.16l-.07.21a2,2,0,0,1,.39.42c.27.37.6.87,1,1.52l1.36,2.24a1.54,1.54,0,0,1,.15.36c.34,0,.67,0,1,0s.76,0,1.42,0v-.56a1.37,1.37,0,0,1-.4-.05.73.73,0,0,1-.21-.16c-.08-.08-.27-.32-.59-.74l-.42-.63-1-1.47-.07-.12s-.1-.16-.24-.36-.25-.39-.36-.58a3.06,3.06,0,0,0,1.46-1,2.21,2.21,0,0,0,.48-1.39,1.76,1.76,0,0,0-.35-1.1,1.65,1.65,0,0,0-.84-.6,6.06,6.06,0,0,0-1.49-.14c-.35,0-.78,0-1.3,0l-1.14,0h-1.21l-1,0v.52a3.38,3.38,0,0,1,.93.13Zm16.39.63a5.69,5.69,0,0,1,.13-.81l-.05-.15a4.06,4.06,0,0,0-1.1-.35,7,7,0,0,0-1.3-.12,5.88,5.88,0,0,0-1.27.14,3.3,3.3,0,0,0-1.1.47,2.34,2.34,0,0,0-.79.93,2.9,2.9,0,0,0-.3,1.31,2.47,2.47,0,0,0,.17.95,1.75,1.75,0,0,0,.49.75,2.26,2.26,0,0,0,.88.48c.25.07.75.19,1.51.35a5,5,0,0,1,1.12.35,1.1,1.1,0,0,1,.47.46,1.47,1.47,0,0,1,.15.69,1.7,1.7,0,0,1-.21.85,1.5,1.5,0,0,1-.69.59,2.6,2.6,0,0,1-1.08.21,2.73,2.73,0,0,1-1.27-.3,2,2,0,0,1-.83-.69,8.59,8.59,0,0,1-.07-1.14h-.53a9.63,9.63,0,0,1-.2,2.2,6.39,6.39,0,0,0,1.34.5,5.8,5.8,0,0,0,1.39.15,4.71,4.71,0,0,0,1.82-.31,3.32,3.32,0,0,0,1.63-1.42,2.85,2.85,0,0,0,.34-1.43,2.73,2.73,0,0,0-.12-.83,2,2,0,0,0-.31-.62,1.79,1.79,0,0,0-.5-.43,3.51,3.51,0,0,0-.83-.32l-.86-.16c-.43-.07-.78-.14-1-.19a2.36,2.36,0,0,1-.73-.28,1,1,0,0,1-.38-.41,1.46,1.46,0,0,1-.14-.68,1.36,1.36,0,0,1,.47-1,1.91,1.91,0,0,1,1.34-.43,2.72,2.72,0,0,1,1.09.21,1.65,1.65,0,0,1,.68.5,7,7,0,0,1,.07,1h.53c0-.43,0-.78.06-1Zm5.64-1.24c-.69,0-1.31,0-1.84,0v.56a7.64,7.64,0,0,1,.8.05.35.35,0,0,1,.15.08.23.23,0,0,1,.06.12,7.53,7.53,0,0,1,.08,1c0,.24,0,.78,0,1.63V15.3c0,.43,0,.9,0,1.41,0,.34,0,.54-.05.59a.21.21,0,0,1-.06.1.3.3,0,0,1-.18.07,6.91,6.91,0,0,1-.76.05v.56c.53,0,1.14,0,1.82,0s1.52,0,2.21,0v-.56c-.42,0-.67,0-.76,0a.57.57,0,0,1-.19-.08.22.22,0,0,1-.08-.14,3,3,0,0,1-.07-.85V12.7c0-.08,0-.64,0-1.68,0-.31,0-.52,0-.63a1.32,1.32,0,0,1,.07-.41.14.14,0,0,1,.07-.1.39.39,0,0,1,.17-.07,5.18,5.18,0,0,1,.76-.05V9.2c-.69,0-1.42,0-2.19,0ZM150.22,18c.57,0,1.26,0,2.08.06v-.52a3.18,3.18,0,0,1-.91-.11.36.36,0,0,1-.19-.24,10.12,10.12,0,0,1-.07-1.65v-3.8c0-1,0-1.6,0-1.74h.91a11.49,11.49,0,0,1,1.25.05.46.46,0,0,1,.2,0,.56.56,0,0,1,.08.27,7.28,7.28,0,0,1,.09.95h.52c0-.89,0-1.36,0-1.39a6.29,6.29,0,0,1,.06-.68l-.06-.06-.59,0-2.14,0h-2.56l-2.1,0-.63,0-.06.06c0,.22,0,.42.07.6s0,.6,0,1.47h.52a5.93,5.93,0,0,1,.1-1,.46.46,0,0,1,.07-.22.52.52,0,0,1,.24,0c.35,0,.75,0,1.21,0h.91c0,.12,0,.7,0,1.74v3.8a11.25,11.25,0,0,1-.07,1.64.39.39,0,0,1-.2.25,2.69,2.69,0,0,1-.9.11v.52q1.17-.06,2.07-.06Zm10.4-6.38a17,17,0,0,0-.92-1.58,4,4,0,0,0-.49-.63,3.12,3.12,0,0,0-.56-.38l-.71.17-1.34.27V10a2.49,2.49,0,0,1,.56,0,3,3,0,0,1,.45.41,10.27,10.27,0,0,1,1,1.39c.46.7.88,1.42,1.28,2.15a1.74,1.74,0,0,1,.24.6v1.2q0,.51,0,1.23a.86.86,0,0,1-.07.38.26.26,0,0,1-.17.1,7.3,7.3,0,0,1-.85.06v.56c.66,0,1.3,0,1.93,0s1.38,0,2.19,0v-.56a6.43,6.43,0,0,1-.84-.05.39.39,0,0,1-.19-.12,1.2,1.2,0,0,1-.1-.44,11.29,11.29,0,0,1,0-1.18V14.66a2.51,2.51,0,0,1,0-.47,1.76,1.76,0,0,1,.19-.48c.13-.27.5-.87,1.1-1.8s1.14-1.74,1.66-2.43V9.2h-1c-.06.12-.2.38-.43.79-.67,1.18-1.07,1.89-1.21,2.12l-.8,1.3c-.1-.22-.4-.81-.89-1.77Z"/><polygon class="cls-2" points="38.92 37.38 38.92 28.71 46.91 28.71 46.91 22.99 38.92 22.99 38.92 14.89 47.7 14.89 47.7 18.03 53.48 18.03 53.48 9.22 30.31 9.22 30.31 14.89 32.48 14.89 32.48 37.38 30.32 37.38 30.32 43.1 41.01 43.1 41.01 37.38 38.92 37.38 38.92 37.38"/><path class="cls-2" d="M27.29,30.29V14.89h2.15V9.22H18.72v5.67h2.09V28.38c0,5.65-.66,8.37-4.72,8.37S11.38,34,11.38,28.38V14.89h2.07V9.22H2.71v5.67H4.84v15.4c0,3.37,0,6.13,1.59,8.6,1.77,2.81,5,4.59,9.66,4.59,8.26,0,11.2-4.3,11.2-13.19Z"/><polygon class="cls-1" points="58.79 9.21 58.79 43.09 60.29 43.09 60.29 9.21 58.79 9.21 58.79 9.21"/><path class="cls-2" d="M171.8,18a1.6,1.6,0,0,0,.71.85,2.61,2.61,0,0,0,1.38.31,3.71,3.71,0,0,0,1.33-.23,5.67,5.67,0,0,0,1.23-.65,4.24,4.24,0,0,0,.94-.78,4.39,4.39,0,0,0,.74-1.46,6,6,0,0,0,.32-1.91,3,3,0,0,0-.13-.93,1.88,1.88,0,0,0-.38-.73,2,2,0,0,0-.79-.5,3.51,3.51,0,0,0-1.15-.19,3.57,3.57,0,0,0-1.42.29,6.12,6.12,0,0,0-1.24.73,6,6,0,0,0-.78.72,4.45,4.45,0,0,0-.65,1.41,6.54,6.54,0,0,0-.31,1.89,3.4,3.4,0,0,0,.2,1.18Zm1.86-3.47a3.86,3.86,0,0,1,.74-1.65,1.35,1.35,0,0,1,1-.44,1.15,1.15,0,0,1,.92.4,1.91,1.91,0,0,1,.36,1.29,8.35,8.35,0,0,1-.31,2.21,6,6,0,0,1-.46,1.25,1.94,1.94,0,0,1-.56.65,1.29,1.29,0,0,1-.72.2,1.22,1.22,0,0,1-1-.39,1.94,1.94,0,0,1-.34-1.29,8.66,8.66,0,0,1,.33-2.23Zm6.72-1.71h1l-1.06,5.48a21.87,21.87,0,0,1-.67,2.95,1.08,1.08,0,0,1-.31.48.64.64,0,0,1-.39.14.6.6,0,0,1-.4-.15,1.55,1.55,0,0,1-.34-.51l-.23.05c-.06.26-.11.5-.18.73s-.17.51-.31.87A1.37,1.37,0,0,0,178,23a1.57,1.57,0,0,0,.72-.2,4.91,4.91,0,0,0,1.4-1.18,6.46,6.46,0,0,0,1.11-1.85,31,31,0,0,0,1-3.42l.81-3.52h1.86a4.89,4.89,0,0,1,.23-.75l-.07-.12a6.72,6.72,0,0,1-.71.07c-.53,0-.86.05-1,0h-.17c.12-.64.26-1.29.43-1.94a2.33,2.33,0,0,1,.21-.54.7.7,0,0,1,.26-.28.68.68,0,0,1,.36-.1,1,1,0,0,1,.52.19,2.28,2.28,0,0,1,.61.65l.21,0a14.89,14.89,0,0,1,.42-1.87,1.69,1.69,0,0,0-.6-.12,1.77,1.77,0,0,0-.69.11,6.73,6.73,0,0,0-1,.67,15.42,15.42,0,0,0-1.42,1.15,3.08,3.08,0,0,0-.61.76,3.75,3.75,0,0,0-.26.86,3.45,3.45,0,0,1-.1.39,5.73,5.73,0,0,1-.78.27c-.33.09-.56.17-.72.23l-.07.37Z"/><path class="cls-2" d="M78.78,29.3H77.45A6.91,6.91,0,0,1,77.28,31a.47.47,0,0,1-.28.35,10,10,0,0,1-2.48.18c-.45,0-1.32,0-2.6-.11v-2.1c0-2.62,0-4.43.17-5.43l1.59-.07,1.43,0a14.21,14.21,0,0,1,2.32.17,4.07,4.07,0,0,1,1.26.36.29.29,0,0,1,.14.15,3.18,3.18,0,0,1,.09.79c0,.84.07,1.38.07,1.62h1.24c0-.66,0-1.44.13-2.33s.18-1.62.29-2.19l-.14-.22A26.31,26.31,0,0,0,77.62,22l-7.28.14L65,22V23.3a15.4,15.4,0,0,1,1.79.17,1,1,0,0,1,.43.16.41.41,0,0,1,.15.25,7.72,7.72,0,0,1,.16,1.65c.1,2.68.15,4.1.15,4.24v6.28c0,.53,0,1.41-.08,2.64s-.1,2-.13,2.19a1.92,1.92,0,0,1-.21.79.46.46,0,0,1-.23.16A9.4,9.4,0,0,1,65,42v1.25c1.87-.07,3.23-.11,4.08-.11l5.95.11V42a18.33,18.33,0,0,1-2.37-.25.71.71,0,0,1-.38-.27A5.56,5.56,0,0,1,72,39.82c0-1-.08-2.64-.08-5V33.11h1.2a22.84,22.84,0,0,1,3.53.19.76.76,0,0,1,.54.29,7.13,7.13,0,0,1,.26,2.28h1.33V29.3ZM87.2,43.08q1,0,3.48.06c2.19.06,3.38.08,3.56.08,1.29,0,2.24,0,2.86-.08A5.35,5.35,0,0,0,98,43c0-.19.06-.76.14-1.72l.38-3.06s0-.22.05-.5H97.29c-.19,1-.39,1.88-.59,2.65a1.52,1.52,0,0,1-.26.56,1.87,1.87,0,0,1-.74.2,27.57,27.57,0,0,1-4,.26c-.5,0-1.45,0-2.85-.11,0-.3,0-1.16,0-2.58s0-2.85,0-4.29c0-2.73,0-4.19,0-4.37,0-1.7,0-3.1.07-4.21A12.89,12.89,0,0,1,89,23.93a.53.53,0,0,1,.24-.3,7,7,0,0,1,2.09-.27V22c-1.65.08-3.39.11-5.22.11-1.65,0-3.11,0-4.39-.11v1.33a6.8,6.8,0,0,1,2.32.3.53.53,0,0,1,.23.28,21.11,21.11,0,0,1,.19,3.25c0,.75,0,2.72,0,5.91q0,3.26-.06,5.58c0,1.55-.09,2.45-.14,2.7a.36.36,0,0,1-.07.17,1.47,1.47,0,0,1-.41.3,10,10,0,0,1-1.1.59v.78c2-.09,3.52-.14,4.51-.14Zm13.06-4.2a9,9,0,0,0,3.84,3.64,12.81,12.81,0,0,0,5.84,1.23,14.64,14.64,0,0,0,5.6-1,10.09,10.09,0,0,0,3.19-2.17,9.55,9.55,0,0,0,2.12-3.22,14,14,0,0,0,1-5.29A13.32,13.32,0,0,0,121.5,29a10.13,10.13,0,0,0-1-2.56,9.48,9.48,0,0,0-4.89-4,15.1,15.1,0,0,0-5-.78,15.62,15.62,0,0,0-5.12.81,9.46,9.46,0,0,0-3.38,2.07,9.56,9.56,0,0,0-2.4,3.5,12.71,12.71,0,0,0-.84,4.83,11.84,11.84,0,0,0,1.39,6Zm4-11.39a5.85,5.85,0,0,1,2.25-3.07,6.57,6.57,0,0,1,3.77-1,6.47,6.47,0,0,1,3.11.65,6,6,0,0,1,2,1.89,9.23,9.23,0,0,1,1.33,3,15.26,15.26,0,0,1,.46,3.89,14.38,14.38,0,0,1-.86,5.26A6,6,0,0,1,114,41.14a6.42,6.42,0,0,1-3.41.91,6.56,6.56,0,0,1-3.58-1,6.82,6.82,0,0,1-2.48-3.27,15.32,15.32,0,0,1-1-5.84,13.6,13.6,0,0,1,.71-4.49ZM124,23.6a.56.56,0,0,1,.22.26,9.69,9.69,0,0,1,.18,2.27l.08,3.2v5.61l-.12,4.43a14.1,14.1,0,0,1-.15,1.78,1,1,0,0,1-.13.42.43.43,0,0,1-.26.16,12.19,12.19,0,0,1-2,.16v1.33c1.34-.07,2.8-.11,4.37-.11,1.76,0,3.51,0,5.23.11V41.89a15.53,15.53,0,0,1-1.75-.09,1.1,1.1,0,0,1-.44-.16.59.59,0,0,1-.2-.22,3.67,3.67,0,0,1-.16-1.1c0-.28-.06-1.46-.1-3.54,0-1.69,0-3.3,0-4.81,0-1,0-2.86.09-5.72,0-1.27.06-2.09.09-2.45a9.82,9.82,0,0,1,3.72.1,3.54,3.54,0,0,1,1.65,1.29,3.87,3.87,0,0,1,.66,2.31,5,5,0,0,1-.63,2.49,3.63,3.63,0,0,1-1.56,1.55,6.27,6.27,0,0,1-2.75.37l-.17.5a4.17,4.17,0,0,1,.94,1c.65.87,1.44,2.08,2.37,3.61l3.24,5.34a3.61,3.61,0,0,1,.36.86c.8,0,1.6-.06,2.41-.06s1.82,0,3.37.06V41.89a3,3,0,0,1-1-.12,1.57,1.57,0,0,1-.5-.37c-.17-.18-.64-.77-1.39-1.77l-1-1.5-2.35-3.5c-.06-.09-.11-.19-.17-.29s-.24-.38-.57-.86-.61-.93-.86-1.38a7.48,7.48,0,0,0,3.5-2.37,5.38,5.38,0,0,0,1.14-3.34,4.19,4.19,0,0,0-.83-2.62,4,4,0,0,0-2-1.41A13.58,13.58,0,0,0,133,22c-.82,0-1.86,0-3.11.08-.75,0-1.66.07-2.72.07q-1.86,0-2.88,0l-2.42-.08V23.3a8.63,8.63,0,0,1,2.22.3Zm24.15-1.46c-1.65,0-3.11,0-4.39-.11v1.33a16.86,16.86,0,0,1,1.92.13.85.85,0,0,1,.37.17.81.81,0,0,1,.14.31,20.59,20.59,0,0,1,.19,2.41c0,.57,0,1.87,0,3.88v6.33c0,1,0,2.15-.13,3.36,0,.83-.09,1.31-.12,1.43a.49.49,0,0,1-.14.24.93.93,0,0,1-.44.17c-.16,0-.76.06-1.82.1v1.33c1.28-.07,2.73-.11,4.36-.11,1.87,0,3.62,0,5.27.11V41.89a13.33,13.33,0,0,1-1.81-.1,1,1,0,0,1-.46-.18.61.61,0,0,1-.2-.32,8.27,8.27,0,0,1-.16-2l0-2.78v-6.1q0-.28.06-4c0-.73,0-1.22.05-1.48a3.63,3.63,0,0,1,.15-1,.53.53,0,0,1,.17-.25,1.08,1.08,0,0,1,.41-.16,13.23,13.23,0,0,1,1.83-.12V22c-1.65.08-3.39.11-5.24.11Zm11.71,21,4.49.11a17.66,17.66,0,0,0,5.22-.67,11.88,11.88,0,0,0,4-2.21,10.78,10.78,0,0,0,2.91-3.8,12.14,12.14,0,0,0,1.06-5.16,11.94,11.94,0,0,0-.71-4.18,7.27,7.27,0,0,0-1.25-2.12,7.86,7.86,0,0,0-2-1.71,8.82,8.82,0,0,0-2.81-1,22.19,22.19,0,0,0-4.29-.33c-.77,0-1.81,0-3.1.06-1.78.05-3,.08-3.64.08l-5.5-.11v1.22c1.1.14,1.73.23,1.9.28a.75.75,0,0,1,.38.18.53.53,0,0,1,.12.21,15.79,15.79,0,0,1,.2,2.73c.05,2.57.08,4.52.08,5.86V35q0,4.56-.18,6.59a10.35,10.35,0,0,1-1,.67l-.42.24v.73l4.58-.11Zm1.31-7.7V31.93q0-5.94.15-8.08a17.63,17.63,0,0,1,2.58-.21,14.51,14.51,0,0,1,4.63.55,5.64,5.64,0,0,1,2.52,1.75,7.37,7.37,0,0,1,1.44,2.83,12.34,12.34,0,0,1,.44,3.34,13.21,13.21,0,0,1-.44,3.52,9.33,9.33,0,0,1-1.23,2.82,6.7,6.7,0,0,1-1.66,1.78,6.2,6.2,0,0,1-2,.93,13.77,13.77,0,0,1-3.57.42,17.17,17.17,0,0,1-2.7-.23q-.15-1.44-.15-5.94Zm17.17,7.7,3.49.11V42a6.53,6.53,0,0,1-2.16-.27.54.54,0,0,1-.25-.51,11.75,11.75,0,0,1,.76-2.6l.66-1.81h7.81L190,40.1a4,4,0,0,1,.35,1.24.45.45,0,0,1-.24.43A9.16,9.16,0,0,1,188,42v1.25l5.31-.11,4.2.11V42l-.66-.07a4.53,4.53,0,0,1-.89-.11,1,1,0,0,1-.31-.18,1.43,1.43,0,0,1-.28-.4l-.61-1.39-.94-2.07L187.1,21.94h-2.16l-1.33,3.44-4,9.75c-.74,1.84-1.25,3.08-1.51,3.71-.57,1.33-.92,2.1-1,2.31a2,2,0,0,1-.35.45.9.9,0,0,1-.4.21,10.1,10.1,0,0,1-1.46.16v1.25l3.47-.11ZM184.7,27.2,187.94,35c-.92,0-2,0-3.12,0s-2.28,0-3.24,0l3.12-7.83Z"/><path class="cls-2" d="M65.79,9.81A.47.47,0,0,1,66,10a1.17,1.17,0,0,1,.08.41c0,.47,0,1,0,1.6v2.83a9.7,9.7,0,0,0,0,1.23,2.43,2.43,0,0,0,.24.77,2.63,2.63,0,0,0,.59.72,3.13,3.13,0,0,0,1,.51,6.19,6.19,0,0,0,1.81.26,5.27,5.27,0,0,0,1.45-.18,3.17,3.17,0,0,0,1.09-.53,2.56,2.56,0,0,0,.7-.78,2.83,2.83,0,0,0,.34-1,9.75,9.75,0,0,0,.08-1.18V13.1c0-.44,0-1,0-1.81A9.91,9.91,0,0,1,73.52,10a.32.32,0,0,1,.13-.19,1.61,1.61,0,0,1,.74-.1V9.2L73,9.24h-.17l-1.37,0v.52a2.57,2.57,0,0,1,.92.13.26.26,0,0,1,.14.15,3.53,3.53,0,0,1,.09,1c0,.25,0,.93,0,2v1.3a5,5,0,0,1-.22,1.83,1.78,1.78,0,0,1-.75.79,2.82,2.82,0,0,1-1.4.3A3.07,3.07,0,0,1,69,17a1.65,1.65,0,0,1-.74-.59,2.09,2.09,0,0,1-.3-1c0-.18,0-.66,0-1.44V11.8A10.17,10.17,0,0,1,68,10.06a.31.31,0,0,1,.12-.22A2,2,0,0,1,69,9.72V9.2h-.24l-.86,0H67L65,9.2v.52l.83.09Zm11.29,8.27c.7,0,1.26,0,1.67,0l1.38,0v-.52H80c-.13,0-.33,0-.6-.05a.56.56,0,0,1-.21-.07.27.27,0,0,1-.09-.12,5.64,5.64,0,0,1-.08-.9c0-.71,0-1.39,0-2.05V11.2q3.75,4.59,5.81,6.88l1.09.16.08,0c-.06-.6-.08-2.31-.08-5.13,0-.36,0-.92,0-1.67A6.6,6.6,0,0,1,86,9.94a.14.14,0,0,1,.07-.1A2.54,2.54,0,0,1,87,9.73V9.2c-.67,0-1.2,0-1.62,0s-.91,0-1.42,0v.53a2.58,2.58,0,0,1,1,.12.54.54,0,0,1,.11.31c0,.4.08,1.74.08,4v1.47q-.89-.92-2.22-2.52-1.86-2.22-3.17-3.93l-.58,0-.92,0c-.26,0-.65,0-1.19,0v.53a7.74,7.74,0,0,1,.81.08.53.53,0,0,1,.2.1.51.51,0,0,1,.09.21,4.75,4.75,0,0,1,0,.61l0,1.84v2c0,.57,0,1,0,1.37q0,.93-.09,1.17a.47.47,0,0,1-.08.24.28.28,0,0,1-.11.08,6.33,6.33,0,0,1-.86.07v.54ZM91.71,9.24c-.69,0-1.3,0-1.83,0v.56a7.58,7.58,0,0,1,.79.05.34.34,0,0,1,.16.08.67.67,0,0,1,.06.12c0,.14,0,.47.07,1,0,.24,0,.78,0,1.63V15.3q0,.64-.06,1.41c0,.34,0,.54,0,.59a.21.21,0,0,1-.06.1.3.3,0,0,1-.18.07,6.86,6.86,0,0,1-.75.05v.56c.53,0,1.14,0,1.82,0s1.52,0,2.21,0v-.56c-.42,0-.67,0-.76,0A.49.49,0,0,1,93,17.4a.23.23,0,0,1-.09-.14,3.65,3.65,0,0,1-.06-.85l0-1.16V12.7q0-.12,0-1.68c0-.31,0-.52,0-.63A1.41,1.41,0,0,1,92.9,10a.18.18,0,0,1,.07-.1.39.39,0,0,1,.17-.07,5.39,5.39,0,0,1,.77-.05V9.2c-.69,0-1.43,0-2.2,0Zm10.14,8.89c.26-.73.75-2,1.48-3.7l.85-2,.45-1.06a6.39,6.39,0,0,1,.72-1.44,2.26,2.26,0,0,1,.72-.13V9.2l-1.37,0-1.62,0v.56c.2,0,.43,0,.7,0a.61.61,0,0,1,.23,0,.16.16,0,0,1,.09.07.27.27,0,0,1,0,.17c0,.05,0,.1,0,.15s-.16.51-.35,1l-.45,1.2-1.42,3.49L100.31,12a.76.76,0,0,1,0-.11l-.26-.64a5.5,5.5,0,0,1-.42-1.2.23.23,0,0,1,.06-.16.34.34,0,0,1,.19-.09,3.53,3.53,0,0,1,.77-.06V9.2l-2.28,0-1.85,0v.56a2.32,2.32,0,0,1,.79.11,1.57,1.57,0,0,1,.37.56c.16.32.6,1.33,1.3,3l.91,2.16c.33.79.67,1.64,1,2.53ZM111,18l2.08,0,1,0a8.83,8.83,0,0,0,1.16-.05l.08-.08a17.55,17.55,0,0,1,.14-2.06H115a6,6,0,0,1-.24,1.15.17.17,0,0,1-.08.11,2,2,0,0,1-.71.13c-.39,0-.81,0-1.26,0s-.87,0-1.22,0c0-.22,0-.47,0-.77V13.85a7.36,7.36,0,0,1,1,0,7,7,0,0,1,1.13.07.36.36,0,0,1,.28.16,2.13,2.13,0,0,1,.09.9h.52l0-1.39,0-1.39H114a2.81,2.81,0,0,1-.09.8.24.24,0,0,1-.09.14,1.23,1.23,0,0,1-.4,0l-1,0c-.32,0-.61,0-.9,0V11.82a18.05,18.05,0,0,1,.08-1.83,11.5,11.5,0,0,1,1.16-.05,10.21,10.21,0,0,1,1.22.07,1.57,1.57,0,0,1,.51.1.23.23,0,0,1,.07.13,5.64,5.64,0,0,1,.06.92h.49c0-.55.06-.85.07-.92l.12-.91,0-.09-.21,0-.92,0-1.29,0-1.93,0h-2.31v.5a3.49,3.49,0,0,1,.92.11.18.18,0,0,1,.09.1,2.92,2.92,0,0,1,.09.87c0,.72,0,1.13,0,1.24v2.85q0,.5-.06,1.59c0,.4,0,.68-.06.86a3.17,3.17,0,0,1-.62.37v.34L111,18Zm8.35-8.17a.2.2,0,0,1,.09.11,4.09,4.09,0,0,1,.08.95l0,1.34V14.6l-.06,1.86a5.63,5.63,0,0,1-.06.75.43.43,0,0,1,0,.17.3.3,0,0,1-.11.07,5.25,5.25,0,0,1-.85.07v.56c.56,0,1.17,0,1.83,0s1.47,0,2.19,0v-.56a5.79,5.79,0,0,1-.73,0,.5.5,0,0,1-.19-.07.32.32,0,0,1-.08-.09,1.55,1.55,0,0,1-.07-.46c0-.12,0-.62,0-1.49,0-.71,0-1.39,0-2,0-.4,0-1.2,0-2.4,0-.54,0-.88,0-1a4.07,4.07,0,0,1,.61-.05,3.43,3.43,0,0,1,1,.09,1.63,1.63,0,0,1,.69.54,1.69,1.69,0,0,1,.28,1,2,2,0,0,1-.27,1,1.5,1.5,0,0,1-.65.65,2.6,2.6,0,0,1-1.15.16l-.07.21a2,2,0,0,1,.39.42c.27.37.6.87,1,1.52l1.36,2.24a1.54,1.54,0,0,1,.15.36c.34,0,.67,0,1,0s.76,0,1.42,0v-.56a1.37,1.37,0,0,1-.4-.05.73.73,0,0,1-.21-.16c-.08-.08-.27-.32-.59-.74l-.42-.63-1-1.47-.07-.12s-.1-.16-.24-.36-.25-.39-.36-.58a3.06,3.06,0,0,0,1.46-1,2.21,2.21,0,0,0,.48-1.39,1.76,1.76,0,0,0-.35-1.1,1.65,1.65,0,0,0-.84-.6,6.06,6.06,0,0,0-1.49-.14c-.35,0-.78,0-1.3,0l-1.14,0h-1.21l-1,0v.52a3.38,3.38,0,0,1,.93.13Zm16.39.63a5.69,5.69,0,0,1,.13-.81l-.05-.15a4.06,4.06,0,0,0-1.1-.35,7,7,0,0,0-1.3-.12,5.88,5.88,0,0,0-1.27.14,3.3,3.3,0,0,0-1.1.47,2.34,2.34,0,0,0-.79.93,2.9,2.9,0,0,0-.3,1.31,2.47,2.47,0,0,0,.17.95,1.75,1.75,0,0,0,.49.75,2.26,2.26,0,0,0,.88.48c.25.07.75.19,1.51.35a5,5,0,0,1,1.12.35,1.1,1.1,0,0,1,.47.46,1.47,1.47,0,0,1,.15.69,1.7,1.7,0,0,1-.21.85,1.5,1.5,0,0,1-.69.59,2.6,2.6,0,0,1-1.08.21,2.73,2.73,0,0,1-1.27-.3,2,2,0,0,1-.83-.69,8.59,8.59,0,0,1-.07-1.14h-.53a9.63,9.63,0,0,1-.2,2.2,6.39,6.39,0,0,0,1.34.5,5.8,5.8,0,0,0,1.39.15,4.71,4.71,0,0,0,1.82-.31,3.32,3.32,0,0,0,1.63-1.42,2.85,2.85,0,0,0,.34-1.43,2.73,2.73,0,0,0-.12-.83,2,2,0,0,0-.31-.62,1.79,1.79,0,0,0-.5-.43,3.51,3.51,0,0,0-.83-.32l-.86-.16c-.43-.07-.78-.14-1-.19a2.36,2.36,0,0,1-.73-.28,1,1,0,0,1-.38-.41,1.46,1.46,0,0,1-.14-.68,1.36,1.36,0,0,1,.47-1,1.91,1.91,0,0,1,1.34-.43,2.72,2.72,0,0,1,1.09.21,1.65,1.65,0,0,1,.68.5,7,7,0,0,1,.07,1h.53c0-.43,0-.78.06-1Zm5.64-1.24c-.69,0-1.31,0-1.84,0v.56a7.64,7.64,0,0,1,.8.05.35.35,0,0,1,.15.08.23.23,0,0,1,.06.12,7.53,7.53,0,0,1,.08,1c0,.24,0,.78,0,1.63V15.3c0,.43,0,.9,0,1.41,0,.34,0,.54-.05.59a.21.21,0,0,1-.06.1.3.3,0,0,1-.18.07,6.91,6.91,0,0,1-.76.05v.56c.53,0,1.14,0,1.82,0s1.52,0,2.21,0v-.56c-.42,0-.67,0-.76,0a.57.57,0,0,1-.19-.08.22.22,0,0,1-.08-.14,3,3,0,0,1-.07-.85V12.7c0-.08,0-.64,0-1.68,0-.31,0-.52,0-.63a1.32,1.32,0,0,1,.07-.41.14.14,0,0,1,.07-.1.39.39,0,0,1,.17-.07,5.18,5.18,0,0,1,.76-.05V9.2c-.69,0-1.42,0-2.19,0ZM150.22,18c.57,0,1.26,0,2.08.06v-.52a3.18,3.18,0,0,1-.91-.11.36.36,0,0,1-.19-.24,10.12,10.12,0,0,1-.07-1.65v-3.8c0-1,0-1.6,0-1.74h.91a11.49,11.49,0,0,1,1.25.05.46.46,0,0,1,.2,0,.56.56,0,0,1,.08.27,7.28,7.28,0,0,1,.09.95h.52c0-.89,0-1.36,0-1.39a6.29,6.29,0,0,1,.06-.68l-.06-.06-.59,0-2.14,0h-2.56l-2.1,0-.63,0-.06.06c0,.22,0,.42.07.6s0,.6,0,1.47h.52a5.93,5.93,0,0,1,.1-1,.46.46,0,0,1,.07-.22.52.52,0,0,1,.24,0c.35,0,.75,0,1.21,0h.91c0,.12,0,.7,0,1.74v3.8a11.25,11.25,0,0,1-.07,1.64.39.39,0,0,1-.2.25,2.69,2.69,0,0,1-.9.11v.52q1.17-.06,2.07-.06Zm10.4-6.38a17,17,0,0,0-.92-1.58,4,4,0,0,0-.49-.63,3.12,3.12,0,0,0-.56-.38l-.71.17-1.34.27V10a2.49,2.49,0,0,1,.56,0,3,3,0,0,1,.45.41,10.27,10.27,0,0,1,1,1.39c.46.7.88,1.42,1.28,2.15a1.74,1.74,0,0,1,.24.6v1.2q0,.51,0,1.23a.86.86,0,0,1-.07.38.26.26,0,0,1-.17.1,7.3,7.3,0,0,1-.85.06v.56c.66,0,1.3,0,1.93,0s1.38,0,2.19,0v-.56a6.43,6.43,0,0,1-.84-.05.39.39,0,0,1-.19-.12,1.2,1.2,0,0,1-.1-.44,11.29,11.29,0,0,1,0-1.18V14.66a2.51,2.51,0,0,1,0-.47,1.76,1.76,0,0,1,.19-.48c.13-.27.5-.87,1.1-1.8s1.14-1.74,1.66-2.43V9.2h-1c-.06.12-.2.38-.43.79-.67,1.18-1.07,1.89-1.21,2.12l-.8,1.3c-.1-.22-.4-.81-.89-1.77Z"/><polygon class="cls-2" points="38.92 37.38 38.92 28.71 46.91 28.71 46.91 22.99 38.92 22.99 38.92 14.89 47.7 14.89 47.7 18.03 53.48 18.03 53.48 9.22 30.31 9.22 30.31 14.89 32.48 14.89 32.48 37.38 30.32 37.38 30.32 43.1 41.01 43.1 41.01 37.38 38.92 37.38 38.92 37.38"/><path class="cls-2" d="M27.29,30.29V14.89h2.15V9.22H18.72v5.67h2.09V28.38c0,5.65-.66,8.37-4.72,8.37S11.38,34,11.38,28.38V14.89h2.07V9.22H2.71v5.67H4.84v15.4c0,3.37,0,6.13,1.59,8.6,1.77,2.81,5,4.59,9.66,4.59,8.26,0,11.2-4.3,11.2-13.19Z"/></svg>